<svg width="223" height="24" viewBox="0 0 223 24" fill="none" xmlns="http://www.w3.org/2000/svg">
<g clip-path="url(#clip0)">
<path d="M81.9 18.3V1.8H84.5L92.5 14.6H92.6L92.5 11.4V1.8H94.6V18.3H92.4L84 4.8H83.9L84 8V18.2H81.9V18.3Z" fill="white" fill-opacity="0.75"/>
<path d="M102.6 18.6C101 18.7 99.5 18 98.4 16.9C97.3 15.7 96.7 14.2 96.8 12.6C96.8 11 97.3 9.5 98.3 8.3C99.3 7.1 100.8 6.5 102.3 6.5C103.8 6.4 105.3 7 106.3 8.1C107.4 9.3 107.9 10.9 107.8 12.5V13H99C99 14 99.4 15 100.1 15.7C100.8 16.3 101.6 16.7 102.5 16.7C103.8 16.8 105.1 16 105.6 14.8L107.5 15.6C107.1 16.5 106.5 17.3 105.7 17.8C104.8 18.4 103.7 18.7 102.6 18.6ZM105.6 11.3C105.5 10.6 105.2 10 104.7 9.5C104 8.9 103.2 8.6 102.3 8.6C101.6 8.6 100.9 8.9 100.3 9.3C99.7 9.8 99.3 10.5 99.1 11.3H105.6Z" fill="white" fill-opacity="0.75"/>
<path d="M121.7 18.3H119.5L116.7 9.7L113.9 18.3H111.8L108.2 7H110.4L112.9 15.5L115.7 7H117.9L120.7 15.5L123.2 7H125.4L121.7 18.3Z" fill="white" fill-opacity="0.75"/>
<path d="M130.7 18.6C129.6 18.6 128.5 18.3 127.6 17.7C126.8 17.1 126.2 16.3 125.8 15.4L127.7 14.6C128.1 15.9 129.4 16.8 130.8 16.7C131.4 16.7 131.9 16.6 132.4 16.3C132.8 16.1 133 15.6 133 15.1C133 14.4 132.5 13.9 131.5 13.6L129.2 13C128.5 12.8 127.8 12.5 127.2 12C126.5 11.5 126.2 10.7 126.2 9.9C126.2 8.9 126.7 8 127.5 7.5C129.2 6.4 131.5 6.3 133.3 7.2C134.1 7.6 134.7 8.3 135 9.2L133.2 10C132.8 9 131.7 8.4 130.6 8.5C130 8.5 129.5 8.6 129 8.9C128.6 9.1 128.4 9.5 128.4 10C128.4 10.6 128.9 11.1 129.9 11.3L132.1 11.8C133 12 133.8 12.4 134.5 13.1C135 13.7 135.3 14.4 135.3 15.1C135.3 16.1 134.8 17 134.1 17.6C133 18.3 131.8 18.7 130.7 18.6Z" fill="white" fill-opacity="0.75"/>
<path d="M142.4 18.3V1.8H144.5V18.3H142.4Z" fill="white" fill-opacity="0.75"/>
<path d="M149.4 7V8.6H149.5C149.8 8 150.4 7.5 150.9 7.2C151.5 6.8 152.3 6.6 153 6.6C154.2 6.5 155.4 7 156.2 7.9C157 8.9 157.4 10.1 157.3 11.3V18.2H155.2V11.6C155.2 9.5 154.3 8.5 152.4 8.5C151.6 8.5 150.8 8.9 150.3 9.5C149.7 10.2 149.5 11 149.5 11.9V18.1H147.4V7H149.4Z" fill="white" fill-opacity="0.75"/>
<path d="M161.9 4.2C161.3 4.8 160.4 4.8 159.8 4.2C159.5 3.9 159.4 3.5 159.4 3.2C159.4 2.8 159.5 2.4 159.8 2.1C160.4 1.5 161.3 1.5 161.9 2.1C162.2 2.4 162.3 2.8 162.3 3.1C162.3 3.5 162.1 3.9 161.9 4.2ZM161.9 18.3H159.8V7H161.9V18.3Z" fill="white" fill-opacity="0.75"/>
<path d="M169.1 18.5C167.3 18.7 165.7 17.4 165.5 15.6C165.5 15.4 165.5 15.1 165.5 14.9V8.9H163.5V7H165.5V3.6H167.6V7H170.4V8.9H167.6V14.7C167.6 15.9 168.1 16.5 169.1 16.5C169.4 16.5 169.8 16.5 170.1 16.3L170.8 18.1C170.2 18.4 169.6 18.5 169.1 18.5Z" fill="white" fill-opacity="0.75"/>
<path d="M174.3 4.2C173.7 4.8 172.8 4.8 172.2 4.2C171.6 3.6 171.6 2.7 172.2 2.1C172.8 1.5 173.7 1.5 174.3 2.1C174.6 2.4 174.7 2.8 174.7 3.2C174.7 3.5 174.6 3.9 174.3 4.2ZM174.3 18.3H172.2V7H174.3V18.3Z" fill="white" fill-opacity="0.75"/>
<path d="M180.3 18.6C179.2 18.6 178.1 18.3 177.3 17.6C176.5 16.9 176.1 15.9 176.1 14.9C176.1 13.8 176.6 12.7 177.5 12C178.5 11.3 179.8 10.9 181 11C182.1 11 183.1 11.2 184.1 11.7V11.4C184.1 10.6 183.8 9.9 183.2 9.4C182.6 8.9 181.9 8.6 181.1 8.6C180.5 8.6 179.9 8.7 179.4 9C178.9 9.3 178.6 9.7 178.4 10.2L176.4 9.3C176.7 8.5 177.3 7.9 177.9 7.4C178.8 6.8 179.8 6.5 180.9 6.5C182.2 6.5 183.5 6.9 184.5 7.8C185.5 8.7 186 10 185.9 11.4V18.2H183.9V16.6H184C183.2 18 181.8 18.7 180.3 18.6ZM180.7 16.7C181.6 16.7 182.4 16.3 183.1 15.7C183.8 15.1 184.2 14.3 184.2 13.4C183.4 12.9 182.5 12.6 181.5 12.7C180.7 12.6 179.8 12.9 179.2 13.4C178.7 13.8 178.4 14.4 178.4 15C178.4 15.5 178.7 16 179.1 16.3C179.5 16.5 180.1 16.7 180.7 16.7Z" fill="white" fill-opacity="0.75"/>
<path d="M193 18.5C191.2 18.7 189.6 17.4 189.4 15.6C189.4 15.4 189.4 15.1 189.4 14.9V8.9H187.4V7H189.4V3.6H191.5V7H194.3V8.9H191.5V14.7C191.5 15.9 192 16.5 193 16.5C193.3 16.5 193.7 16.5 194 16.3L194.7 18.1C194.2 18.4 193.6 18.5 193 18.5Z" fill="white" fill-opacity="0.75"/>
<path d="M198.2 4.2C197.6 4.8 196.7 4.8 196.1 4.2C195.8 3.9 195.7 3.5 195.7 3.1C195.7 2.7 195.8 2.3 196.1 2C196.7 1.4 197.6 1.4 198.2 2C198.5 2.3 198.6 2.7 198.6 3.1C198.7 3.5 198.5 3.9 198.2 4.2ZM198.2 18.3H196.1V7H198.2V18.3Z" fill="white" fill-opacity="0.75"/>
<path d="M204.1 18.3L199.6 7H201.9L205.3 15.7L208.7 7H211L206.4 18.3H204.1Z" fill="white" fill-opacity="0.75"/>
<path d="M216.8 18.6C215.2 18.7 213.7 18 212.7 16.9C211.6 15.7 211 14.2 211.1 12.6C211.1 11 211.6 9.5 212.7 8.3C213.7 7.1 215.2 6.5 216.7 6.5C218.2 6.4 219.7 7 220.7 8.1C221.8 9.3 222.3 10.9 222.2 12.5V13H213.3C213.3 14 213.7 15 214.4 15.7C215.1 16.3 215.9 16.7 216.8 16.7C218.1 16.8 219.4 16 219.9 14.8L221.8 15.6C221.4 16.5 220.8 17.3 220 17.8C218.9 18.4 217.8 18.7 216.8 18.6ZM219.8 11.3C219.7 10.6 219.4 10 218.9 9.5C218.3 8.9 217.4 8.6 216.5 8.6C215.8 8.6 215.1 8.9 214.5 9.3C213.9 9.8 213.5 10.5 213.3 11.3H219.8Z" fill="white" fill-opacity="0.75"/>
<path d="M9.3 18.6C4.2 18.6 0 14.5 0 9.3C0 4.1 4.2 0 9.3 0C11.7 0 14 0.9 15.7 2.6L13.9 4.4C12.7 3.2 11 2.5 9.3 2.6C5.6 2.7 2.6 5.9 2.8 9.6C2.9 13.1 5.8 16 9.3 16.1C11.1 16.2 12.8 15.5 14 14.2C14.8 13.3 15.3 12.2 15.4 11H9.3V8.5H17.9C18 9 18 9.5 18 10.1C18.1 12.3 17.3 14.5 15.8 16.1C14.1 17.8 11.8 18.8 9.3 18.6Z" fill="white"/>
<path d="M31.3 12.6C31.3 15.9 28.6 18.5 25.3 18.4C22 18.4 19.4 15.7 19.5 12.4C19.5 9.2 22.2 6.6 25.4 6.6C28.6 6.6 31.3 9.2 31.3 12.4C31.3 12.5 31.3 12.6 31.3 12.6ZM28.7 12.6C28.9 10.8 27.5 9.1 25.7 9C23.9 8.8 22.2 10.2 22.1 12C22.1 12.2 22.1 12.4 22.1 12.6C21.9 14.4 23.3 16.1 25.1 16.2C26.9 16.4 28.6 15 28.7 13.2C28.7 13.1 28.7 12.9 28.7 12.6Z" fill="white"/>
<path d="M44.5 12.6C44.5 15.9 41.8 18.5 38.5 18.4C35.2 18.4 32.6 15.7 32.7 12.4C32.7 9.2 35.4 6.6 38.6 6.6C41.8 6.6 44.5 9.2 44.5 12.4C44.5 12.5 44.5 12.6 44.5 12.6ZM41.9 12.6C42.1 10.8 40.7 9.1 38.9 9C37.1 8.8 35.4 10.2 35.3 12C35.3 12.2 35.3 12.4 35.3 12.6C35.1 14.4 36.5 16.1 38.3 16.2C40.1 16.4 41.8 15 41.9 13.2C42 13.1 42 12.9 41.9 12.6Z" fill="white"/>
<path d="M57.5 7V17.8C57.5 22.2 54.9 24 51.8 24C49.5 24 47.4 22.6 46.5 20.5L48.8 19.5C49.3 20.7 50.5 21.6 51.8 21.6C53.8 21.6 55 20.4 55 18.1V17.2H54.9C54.1 18.1 52.9 18.6 51.7 18.6C48.4 18.6 45.7 15.9 45.7 12.6C45.7 9.3 48.4 6.6 51.7 6.6C52.9 6.6 54 7.1 54.9 7.9H55V6.9L57.5 7ZM55.1 12.7C55.3 10.8 53.9 9.2 52 9H51.9C50 9.1 48.5 10.7 48.6 12.6C48.5 14.5 50 16.1 51.9 16.2C51.9 16.2 51.9 16.2 52 16.2C53.9 16.1 55.3 14.6 55.2 12.7C55.1 12.7 55.1 12.7 55.1 12.7Z" fill="white"/>
<path d="M62.1 0.6V18.2H59.5V0.6H62.1Z" fill="white"/>
<path d="M72.4 14.6L74.4 16C73.3 17.7 71.4 18.7 69.4 18.7C66.2 18.7 63.6 16.2 63.5 13C63.5 12.9 63.5 12.8 63.5 12.7C63.5 9.1 66 6.7 69.1 6.7C71.4 6.8 73.5 8.3 74.2 10.5L74.5 11.2L66.5 14.5C67 15.6 68.2 16.4 69.4 16.3C70.7 16.3 71.8 15.7 72.4 14.6ZM66.2 12.5L71.6 10.3C71.2 9.5 70.3 9 69.4 9C67.5 9 66.1 10.6 66.2 12.5C66.1 12.4 66.1 12.4 66.2 12.5Z" fill="white"/>
</g>
<defs>
<clipPath id="clip0">
<rect width="222.1" height="24" fill="white"/>
</clipPath>
</defs>
</svg>
