<?xml version="1.0" encoding="utf-8"?>
<!-- Generator: Adobe Illustrator 19.2.0, SVG Export Plug-In . SVG Version: 6.00 Build 0)  -->
<svg version="1.1" id="Layer_1" xmlns="http://www.w3.org/2000/svg" xmlns:xlink="http://www.w3.org/1999/xlink" x="0px" y="0px"
	 viewBox="0 0 222.1 24" style="enable-background:new 0 0 222.1 24;" xml:space="preserve">
<style type="text/css">
	.st0{fill:#5F6368;}
	.st1{fill:#4285F4;}
	.st2{fill:#EA4335;}
	.st3{fill:#FBBC04;}
	.st4{fill:#34A853;}
</style>
<title>Google_NewsInitiative_Lockup_FullColor</title>
<path class="st0" d="M81.9,18.3V1.8h2.6l8,12.8h0.1l-0.1-3.2V1.8h2.1v16.5h-2.2L84,4.8h-0.1L84,8v10.2H81.9z"/>
<path class="st0" d="M102.6,18.6c-1.6,0.1-3.1-0.6-4.2-1.7c-1.1-1.2-1.7-2.7-1.6-4.3c0-1.6,0.5-3.1,1.5-4.3c1-1.2,2.5-1.8,4-1.8
	c1.5-0.1,3,0.5,4,1.6c1.1,1.2,1.6,2.8,1.5,4.4V13H99c0,1,0.4,2,1.1,2.7c0.7,0.6,1.5,1,2.4,1c1.3,0.1,2.6-0.7,3.1-1.9l1.9,0.8
	c-0.4,0.9-1,1.7-1.8,2.2C104.8,18.4,103.7,18.7,102.6,18.6z M105.6,11.3c-0.1-0.7-0.4-1.3-0.9-1.8c-0.7-0.6-1.5-0.9-2.4-0.9
	c-0.7,0-1.4,0.3-2,0.7c-0.6,0.5-1,1.2-1.2,2L105.6,11.3z"/>
<path class="st0" d="M121.7,18.3h-2.2l-2.8-8.6l-2.8,8.6h-2.1L108.2,7h2.2l2.5,8.5l0,0l2.8-8.5h2.2l2.8,8.5l0,0l2.5-8.5h2.2
	L121.7,18.3z"/>
<path class="st0" d="M130.7,18.6c-1.1,0-2.2-0.3-3.1-0.9c-0.8-0.6-1.4-1.4-1.8-2.3l1.9-0.8c0.4,1.3,1.7,2.2,3.1,2.1
	c0.6,0,1.1-0.1,1.6-0.4c0.4-0.2,0.6-0.7,0.6-1.2c0-0.7-0.5-1.2-1.5-1.5l-2.3-0.6c-0.7-0.2-1.4-0.5-2-1c-0.7-0.5-1-1.3-1-2.1
	c0-1,0.5-1.9,1.3-2.4c1.7-1.1,4-1.2,5.8-0.3c0.8,0.4,1.4,1.1,1.7,2l-1.8,0.8c-0.4-1-1.5-1.6-2.6-1.5c-0.6,0-1.1,0.1-1.6,0.4
	c-0.4,0.2-0.6,0.6-0.6,1.1c0,0.6,0.5,1.1,1.5,1.3l2.2,0.5c0.9,0.2,1.7,0.6,2.4,1.3c0.5,0.6,0.8,1.3,0.8,2c0,1-0.5,1.9-1.2,2.5
	C133,18.3,131.8,18.7,130.7,18.6z"/>
<path class="st0" d="M142.4,18.3V1.8h2.1v16.5H142.4z"/>
<path class="st0" d="M149.4,7v1.6h0.1c0.3-0.6,0.9-1.1,1.4-1.4c0.6-0.4,1.4-0.6,2.1-0.6c1.2-0.1,2.4,0.4,3.2,1.3
	c0.8,1,1.2,2.2,1.1,3.4v6.9h-2.1v-6.6c0-2.1-0.9-3.1-2.8-3.1c-0.8,0-1.6,0.4-2.1,1c-0.6,0.7-0.8,1.5-0.8,2.4v6.2h-2.1V7H149.4z"/>
<path class="st0" d="M161.9,4.2c-0.6,0.6-1.5,0.6-2.1,0c-0.3-0.3-0.4-0.7-0.4-1c0-0.4,0.1-0.8,0.4-1.1c0.6-0.6,1.5-0.6,2.1,0
	c0.3,0.3,0.4,0.7,0.4,1C162.3,3.5,162.1,3.9,161.9,4.2z M161.9,18.3h-2.1V7h2.1V18.3z"/>
<path class="st0" d="M169.1,18.5c-1.8,0.2-3.4-1.1-3.6-2.9c0-0.2,0-0.5,0-0.7V8.9h-2V7h2V3.6h2.1V7h2.8v1.9h-2.8v5.8
	c0,1.2,0.5,1.8,1.5,1.8c0.3,0,0.7,0,1-0.2l0.7,1.8C170.2,18.4,169.6,18.5,169.1,18.5z"/>
<path class="st0" d="M174.3,4.2c-0.6,0.6-1.5,0.6-2.1,0c-0.6-0.6-0.6-1.5,0-2.1s1.5-0.6,2.1,0c0,0,0,0,0,0c0.3,0.3,0.4,0.7,0.4,1.1
	C174.7,3.5,174.6,3.9,174.3,4.2z M174.3,18.3h-2.1V7h2.1L174.3,18.3z"/>
<path class="st0" d="M180.3,18.6c-1.1,0-2.2-0.3-3-1c-0.8-0.7-1.2-1.7-1.2-2.7c0-1.1,0.5-2.2,1.4-2.9c1-0.7,2.3-1.1,3.5-1
	c1.1,0,2.1,0.2,3.1,0.7v-0.3c0-0.8-0.3-1.5-0.9-2c-0.6-0.5-1.3-0.8-2.1-0.8c-0.6,0-1.2,0.1-1.7,0.4c-0.5,0.3-0.8,0.7-1,1.2l-2-0.9
	c0.3-0.8,0.9-1.4,1.5-1.9c0.9-0.6,1.9-0.9,3-0.9c1.3,0,2.6,0.4,3.6,1.3c1,0.9,1.5,2.2,1.4,3.6v6.8h-2v-1.6H184
	C183.2,18,181.8,18.7,180.3,18.6z M180.7,16.7c0.9,0,1.7-0.4,2.4-1c0.7-0.6,1.1-1.4,1.1-2.3c-0.8-0.5-1.7-0.8-2.7-0.7
	c-0.8-0.1-1.7,0.2-2.3,0.7c-0.5,0.4-0.8,1-0.8,1.6c0,0.5,0.3,1,0.7,1.3C179.5,16.5,180.1,16.7,180.7,16.7L180.7,16.7z"/>
<path class="st0" d="M193,18.5c-1.8,0.2-3.4-1.1-3.6-2.9c0-0.2,0-0.5,0-0.7V8.9h-2V7h2V3.6h2.1V7h2.8v1.9h-2.8v5.8
	c0,1.2,0.5,1.8,1.5,1.8c0.3,0,0.7,0,1-0.2l0.7,1.8C194.2,18.4,193.6,18.5,193,18.5z"/>
<path class="st0" d="M198.2,4.2c-0.6,0.6-1.5,0.6-2.1,0c-0.3-0.3-0.4-0.7-0.4-1.1c0-0.4,0.1-0.8,0.4-1.1c0.6-0.6,1.5-0.6,2.1,0
	c0.3,0.3,0.4,0.7,0.4,1.1C198.7,3.5,198.5,3.9,198.2,4.2z M198.2,18.3h-2.1V7h2.1V18.3z"/>
<path class="st0" d="M204.1,18.3L199.6,7h2.3l3.4,8.7l0,0l3.4-8.7h2.3l-4.6,11.3H204.1z"/>
<path class="st0" d="M216.8,18.6c-1.6,0.1-3.1-0.6-4.1-1.7c-1.1-1.2-1.7-2.7-1.6-4.3c0-1.6,0.5-3.1,1.6-4.3c1-1.2,2.5-1.8,4-1.8
	c1.5-0.1,3,0.5,4,1.6c1.1,1.2,1.6,2.8,1.5,4.4V13h-8.9c0,1,0.4,2,1.1,2.7c0.7,0.6,1.5,1,2.4,1c1.3,0.1,2.6-0.7,3.1-1.9l1.9,0.8
	c-0.4,0.9-1,1.7-1.8,2.2C218.9,18.4,217.8,18.7,216.8,18.6z M219.8,11.3c-0.1-0.7-0.4-1.3-0.9-1.8c-0.6-0.6-1.5-0.9-2.4-0.9
	c-0.7,0-1.4,0.3-2,0.7c-0.6,0.5-1,1.2-1.2,2L219.8,11.3z"/>
<path class="st1" d="M9.3,18.6C4.2,18.6,0,14.5,0,9.3S4.2,0,9.3,0c0,0,0,0,0,0c2.4,0,4.7,0.9,6.4,2.6l-1.8,1.8
	C12.7,3.2,11,2.5,9.3,2.6c-3.7,0.1-6.7,3.3-6.5,7c0.1,3.5,3,6.4,6.5,6.5c1.8,0.1,3.5-0.6,4.7-1.9c0.8-0.9,1.3-2,1.4-3.2H9.3V8.5h8.6
	C18,9,18,9.5,18,10.1c0.1,2.2-0.7,4.4-2.2,6C14.1,17.8,11.8,18.8,9.3,18.6z"/>
<path class="st2" d="M31.3,12.6c0,3.3-2.7,5.9-6,5.8c-3.3,0-5.9-2.7-5.8-6c0-3.2,2.7-5.8,5.9-5.8c3.2,0,5.9,2.6,5.9,5.8
	C31.3,12.5,31.3,12.6,31.3,12.6z M28.7,12.6c0.2-1.8-1.2-3.5-3-3.6c-1.8-0.2-3.5,1.2-3.6,3c0,0.2,0,0.4,0,0.6
	c-0.2,1.8,1.2,3.5,3,3.6c1.8,0.2,3.5-1.2,3.6-3C28.7,13.1,28.7,12.9,28.7,12.6z"/>
<path class="st3" d="M44.5,12.6c0,3.3-2.7,5.9-6,5.8c-3.3,0-5.9-2.7-5.8-6c0-3.2,2.7-5.8,5.9-5.8c3.2,0,5.9,2.6,5.9,5.8
	C44.5,12.5,44.5,12.6,44.5,12.6z M41.9,12.6c0.2-1.8-1.2-3.5-3-3.6c-1.8-0.2-3.5,1.2-3.6,3c0,0.2,0,0.4,0,0.6
	c-0.2,1.8,1.2,3.5,3,3.6c1.8,0.2,3.5-1.2,3.6-3C42,13.1,42,12.9,41.9,12.6z"/>
<path class="st1" d="M57.5,7v10.8c0,4.4-2.6,6.2-5.7,6.2c-2.3,0-4.4-1.4-5.3-3.5l2.3-1c0.5,1.2,1.7,2.1,3,2.1c2,0,3.2-1.2,3.2-3.5
	v-0.9h-0.1c-0.8,0.9-2,1.4-3.2,1.4c-3.3,0-6-2.7-6-6s2.7-6,6-6c1.2,0,2.3,0.5,3.2,1.3h0.1v-1L57.5,7z M55.1,12.7
	c0.2-1.9-1.2-3.5-3.1-3.7c0,0-0.1,0-0.1,0c-1.9,0.1-3.4,1.7-3.3,3.6c0,0,0,0,0,0c-0.1,1.9,1.4,3.5,3.3,3.6c0,0,0,0,0.1,0
	c1.9-0.1,3.3-1.6,3.2-3.5C55.1,12.7,55.1,12.7,55.1,12.7z"/>
<path class="st4" d="M62.1,0.6v17.6h-2.6V0.6H62.1z"/>
<path class="st2" d="M72.4,14.6l2,1.4c-1.1,1.7-3,2.7-5,2.7c-3.2,0-5.8-2.5-5.9-5.7c0-0.1,0-0.2,0-0.3c0-3.6,2.5-6,5.6-6
	c2.3,0.1,4.4,1.6,5.1,3.8l0.3,0.7l-8,3.3c0.5,1.1,1.7,1.9,2.9,1.8C70.7,16.3,71.8,15.7,72.4,14.6z M66.2,12.5l5.4-2.2
	c-0.4-0.8-1.3-1.3-2.2-1.3C67.5,9,66.1,10.6,66.2,12.5C66.1,12.4,66.1,12.4,66.2,12.5z"/>
</svg>
