<svg width="82" height="18" viewBox="0 0 82 18" fill="none" xmlns="http://www.w3.org/2000/svg">
<path opacity="0.9" fill-rule="evenodd" clip-rule="evenodd" d="M18 9C18 4.03297 13.967 0 9 0C4.03297 0 0 4.03297 0 9C0 13.967 4.03297 18 9 18C13.967 18 18 13.967 18 9ZM6.79135 4.72865C3.81308 7.71665 4.56908 13.033 4.6187 13.3618L4.62162 13.3784C4.62162 13.3784 10.187 14.2832 13.2714 11.2086C14.0799 10.4021 14.5168 9.31135 14.5168 8.16324C14.5168 6.92757 14.0205 5.74054 13.1351 4.86486C12.2595 3.97946 11.0724 3.48324 9.83676 3.48324C9.27205 3.47946 8.71218 3.58757 8.18948 3.80132C7.66678 4.01508 7.19159 4.33025 6.79135 4.72865ZM10.7514 8.80541L12.6973 8.02703L10.7514 7.24865L9.97297 5.3027L9.19459 7.24865L7.24865 8.02703L9.19459 8.80541L9.97297 10.7514L10.7514 8.80541ZM47.2966 5.81859C47.2966 5.6921 47.1993 5.59481 47.0729 5.59481H45.7107C45.5842 5.59481 45.4869 5.70183 45.4869 5.81859V16.0737C45.4869 16.2002 45.5842 16.2975 45.7107 16.2975H47.0729C47.1993 16.2975 47.2966 16.2002 47.2966 16.0737V12.4056C47.9875 13.1353 48.9507 13.5537 49.9626 13.5537C52.0739 13.5537 53.7961 11.7343 53.7961 9.47697C53.7961 7.21967 52.0642 5.41967 49.9529 5.41967C48.9507 5.41967 47.9777 5.82832 47.2966 6.56778V5.81859ZM43.3269 5.59481C43.3269 5.60454 43.3269 5.60454 43.3172 5.60454H41.955C41.8285 5.60454 41.7312 5.71156 41.7312 5.82832V6.55805C41.0404 5.82832 40.0772 5.40994 39.075 5.40994C36.9637 5.40994 35.2415 7.2294 35.2415 9.4867C35.2415 11.744 36.9637 13.5635 39.075 13.5635C40.0869 13.5635 41.0502 13.1451 41.7312 12.4056V13.1548C41.7312 13.2813 41.8285 13.3786 41.955 13.3786H43.3172C43.4437 13.3786 43.541 13.2716 43.541 13.1548V5.80886C43.541 5.6921 43.4534 5.59481 43.3269 5.59481ZM66.3933 6.30922C67.1291 5.72729 68.0412 5.41353 68.9793 5.41967C71.2853 5.41967 73.1339 7.21967 73.1339 9.47697C73.1339 11.7343 71.2756 13.5537 68.9891 13.5537C68.0477 13.5629 67.1315 13.2492 66.3933 12.665C65.6551 12.0807 65.1392 11.2612 64.9318 10.3429C64.8053 9.77859 64.8053 9.19481 64.9318 8.62075C65.1419 7.70648 65.6574 6.89115 66.3933 6.30922ZM57.0264 2.89967C57.0264 2.77318 56.9291 2.67589 56.8026 2.67589H55.4404C55.3139 2.67589 55.2166 2.78291 55.2166 2.89967V13.1548C55.2166 13.2813 55.3139 13.3786 55.4404 13.3786H56.8026C56.9291 13.3786 57.0264 13.2716 57.0264 13.1548V12.4056C57.7172 13.1353 58.6804 13.5537 59.6826 13.5537C61.5118 13.5537 63.0393 12.1818 63.4188 10.3526C63.5453 9.76886 63.5453 9.17535 63.4188 8.60129C63.0393 6.7721 61.5118 5.40994 59.6826 5.40994C58.6804 5.40994 57.7075 5.81859 57.0264 6.55805V2.89967ZM22.3593 13.3786H23.7215C23.848 13.3786 23.9453 13.2813 23.9453 13.1548V8.77643C24.0037 7.79373 24.675 7.02508 25.502 7.02508C26.3583 7.02508 27.0783 7.73535 27.0783 8.68886V13.1548C27.0783 13.2716 27.1756 13.3786 27.302 13.3786H28.6739C28.7907 13.3786 28.8977 13.2813 28.8977 13.1548L28.888 8.60129C29.0145 7.70616 29.6566 7.02508 30.435 7.02508C31.2912 7.02508 32.0112 7.73535 32.0112 8.68886V13.1548C32.0112 13.2716 32.1085 13.3786 32.235 13.3786H33.6069C33.7334 13.3786 33.8307 13.2813 33.8307 13.1548L33.8015 8.09535C33.8307 6.6067 32.5561 5.39048 30.9799 5.39048C29.968 5.40021 29.0437 5.984 28.6058 6.90832C28.1096 5.984 27.1366 5.40021 26.0761 5.40021H26.0469C25.2102 5.40994 24.4318 5.80886 23.9453 6.47048V5.80886C23.9356 5.70183 23.848 5.59481 23.7215 5.59481H22.3593C22.2329 5.59481 22.1453 5.68237 22.1356 5.80886V13.1548C22.1356 13.2716 22.2329 13.3786 22.3593 13.3786ZM74.321 13.3786H75.8875C75.9464 13.3795 76.0046 13.3647 76.0559 13.3356C76.1072 13.3066 76.1499 13.2643 76.1793 13.2132L77.5804 10.8586L78.9815 13.2132C79.0399 13.3202 79.1469 13.3786 79.2734 13.3786H80.8399C80.9566 13.3786 81.0442 13.291 81.0442 13.1743C81.0442 13.1559 81.042 13.1375 81.0397 13.1181C81.0372 13.0964 81.0345 13.0735 81.0345 13.0478L78.6702 9.44778L80.9761 5.89643C81.0442 5.80886 81.0053 5.68237 80.9177 5.62399C80.8788 5.60454 80.8399 5.59481 80.801 5.59481H79.2442C79.1852 5.59385 79.1271 5.60868 79.0757 5.63776C79.0244 5.66684 78.9818 5.70912 78.9523 5.76021L77.5902 8.06616L76.2183 5.76021C76.1599 5.65318 76.0529 5.59481 75.9264 5.59481H74.3599C74.2431 5.59481 74.1556 5.68237 74.1556 5.79913C74.1535 5.84008 74.1637 5.88071 74.1848 5.91589L76.5102 9.46724L74.1458 13.077C74.0777 13.1645 74.1166 13.291 74.2042 13.3494C74.2431 13.3689 74.2821 13.3786 74.321 13.3786ZM66.6053 9.4867C66.6053 10.8391 67.6658 11.9289 68.9599 11.9289C70.2637 11.9191 71.3145 10.8294 71.3145 9.47697C71.3145 8.12454 70.2539 7.03481 68.9599 7.03481C67.6561 7.03481 66.6053 8.13427 66.6053 9.4867ZM47.2772 9.51589C47.3064 10.8489 48.3475 11.9289 49.6318 11.9289C50.9161 11.9191 51.9572 10.8197 51.9572 9.46724C51.9572 8.11481 50.8966 7.02508 49.6123 7.02508C48.3377 7.02508 47.2966 8.10508 47.2772 9.44778V9.51589ZM39.3961 11.9191C40.6804 11.9191 41.7312 10.8489 41.741 9.51589L41.7215 9.43805C41.702 8.10508 40.6707 7.02508 39.3766 7.02508C38.0923 7.02508 37.0415 8.12454 37.0415 9.47697C37.0415 10.8294 38.1118 11.9191 39.3961 11.9191ZM57.0264 9.50616C57.0458 10.8391 58.0869 11.9191 59.3712 11.9191C60.6653 11.9191 61.7258 10.8294 61.7258 9.47697C61.7258 8.12454 60.6556 7.03481 59.3712 7.03481C58.0869 7.03481 57.0458 8.10508 57.0264 9.44778V9.50616Z" fill="white"/>
</svg>
