<svg width="48" height="48" viewBox="0 0 48 48" fill="none" xmlns="http://www.w3.org/2000/svg">
<ellipse cx="24" cy="24" rx="2" ry="2" transform="rotate(180 24 24)" fill="#808080"/>
<ellipse cx="25" cy="18" rx="2" ry="2" transform="rotate(180 25 18)" fill="#808080"/>
<ellipse cx="30" cy="12" rx="2" ry="2" transform="rotate(180 30 12)" fill="white" fill-opacity="0.25"/>
<ellipse cx="20" cy="9" rx="2" ry="2" transform="rotate(180 20 9)" fill="white" fill-opacity="0.25"/>
<ellipse cx="33" cy="8" rx="2" ry="2" transform="rotate(180 33 8)" fill="white" fill-opacity="0.25"/>
<ellipse cx="19" cy="22" rx="2" ry="2" transform="rotate(180 19 22)" fill="#808080"/>
<ellipse cx="19" cy="16" rx="2" ry="2" transform="rotate(180 19 16)" fill="#808080"/>
<ellipse cx="15" cy="26" rx="2" ry="2" transform="rotate(180 15 26)" fill="#808080"/>
<ellipse cx="25" cy="32" rx="2" ry="2" transform="rotate(180 25 32)" fill="#808080"/>
<ellipse cx="24" cy="39" rx="2" ry="2" transform="rotate(180 24 39)" fill="white" fill-opacity="0.25"/>
<ellipse cx="19" cy="39" rx="2" ry="2" transform="rotate(180 19 39)" fill="white" fill-opacity="0.25"/>
<ellipse cx="30" cy="37" rx="2" ry="2" transform="rotate(180 30 37)" fill="white" fill-opacity="0.25"/>
<ellipse cx="12" cy="34" rx="2" ry="2" transform="rotate(180 12 34)" fill="white" fill-opacity="0.25"/>
<ellipse cx="13" cy="13" rx="2" ry="2" transform="rotate(180 13 13)" fill="white" fill-opacity="0.25"/>
<ellipse cx="9" cy="28" rx="2" ry="2" transform="rotate(180 9 28)" fill="white" fill-opacity="0.25"/>
<ellipse cx="9" cy="18" rx="2" ry="2" transform="rotate(180 9 18)" fill="white" fill-opacity="0.25"/>
<ellipse cx="38" cy="16" rx="2" ry="2" transform="rotate(180 38 16)" fill="white" fill-opacity="0.25"/>
<ellipse cx="39" cy="27" rx="2" ry="2" transform="rotate(180 39 27)" fill="white" fill-opacity="0.25"/>
<ellipse cx="37" cy="36" rx="2" ry="2" transform="rotate(180 37 36)" fill="white" fill-opacity="0.25"/>
<ellipse cx="33" cy="22" rx="2" ry="2" transform="rotate(180 33 22)" fill="#808080"/>
<ellipse cx="30" cy="30" rx="2" ry="2" transform="rotate(180 30 30)" fill="#808080"/>
<ellipse cx="30" cy="18" rx="2" ry="2" transform="rotate(180 30 18)" fill="#808080"/>
<ellipse cx="29" cy="24" rx="2" ry="2" transform="rotate(180 29 24)" fill="#808080"/>
<ellipse cx="20" cy="29" rx="2" ry="2" transform="rotate(180 20 29)" fill="#808080"/>
</svg>
