<svg width="48" height="48" viewBox="0 0 48 48" fill="none" xmlns="http://www.w3.org/2000/svg">
<path d="M23.2 34.6C24.9673 34.6 26.4 33.1673 26.4 31.4C26.4 29.6326 24.9673 28.2 23.2 28.2C21.4327 28.2 20 29.6326 20 31.4C20 33.1673 21.4327 34.6 23.2 34.6Z" fill="white"/>
<path d="M30.7998 37C31.9044 37 32.7998 36.1046 32.7998 35C32.7998 33.8954 31.9044 33 30.7998 33C29.6952 33 28.7998 33.8954 28.7998 35C28.7998 36.1046 29.6952 37 30.7998 37Z" fill="white"/>
<path d="M31.1999 30.6C33.8509 30.6 35.9999 28.451 35.9999 25.8C35.9999 23.149 33.8509 21 31.1999 21C28.5489 21 26.3999 23.149 26.3999 25.8C26.3999 28.451 28.5489 30.6 31.1999 30.6Z" fill="white"/>
<path d="M19 26C23.4183 26 27 22.4183 27 18C27 13.5817 23.4183 10 19 10C14.5817 10 11 13.5817 11 18C11 22.4183 14.5817 26 19 26Z" fill="white"/>
</svg>
